<?xml version="1.0" encoding="UTF-8"?>
<svg version="1.1" xmlns="http://www.w3.org/2000/svg" width="512" height="512">
<path d="M0 0 C1.46128167 -0.00445668 1.46128167 -0.00445668 2.95208418 -0.0090034 C6.20192115 -0.01764389 9.45172108 -0.01919472 12.7015686 -0.02069092 C15.03804604 -0.02532251 17.37452272 -0.03034762 19.71099854 -0.03573608 C26.05037391 -0.0488321 32.38973871 -0.05529997 38.7291255 -0.05974674 C42.6959405 -0.06268292 46.66275264 -0.06678882 50.62956619 -0.07125092 C61.63588749 -0.08343948 72.64220688 -0.09373838 83.64853477 -0.09712601 C84.7036612 -0.09745536 84.7036612 -0.09745536 85.7801033 -0.09779136 C86.48510775 -0.09800964 87.1901122 -0.09822791 87.91648042 -0.09845281 C89.34484315 -0.09889626 90.77320588 -0.09934282 92.2015686 -0.09979248 C93.26432152 -0.10012463 93.26432152 -0.10012463 94.3485442 -0.10046348 C105.80752285 -0.10440452 117.26643764 -0.12183913 128.72539167 -0.145152 C140.52080381 -0.16895339 152.31618403 -0.1813319 164.11162055 -0.18249393 C170.72181833 -0.18340597 177.3319427 -0.1893635 183.9421196 -0.20731354 C190.16873469 -0.22389317 196.39519294 -0.22590201 202.62182236 -0.21717453 C204.89442874 -0.21640934 207.1670439 -0.22067762 209.4396286 -0.23063278 C226.3645568 -0.30036413 242.62089032 0.6724258 258.73526001 6.32794189 C260.05022461 6.78076538 260.05022461 6.78076538 261.39175415 7.24273682 C293.52908692 18.69916879 319.27066261 43.63865744 334.04776001 74.14044189 C341.22738582 90.47595501 345.20544211 107.22046321 345.1882019 125.09268188 C345.19265859 126.55396356 345.19265859 126.55396356 345.19720531 128.04476607 C345.20584579 131.29460304 345.20739662 134.54440296 345.20889282 137.79425049 C345.21352441 140.13072792 345.21854953 142.46720461 345.22393799 144.80368042 C345.237034 151.1430558 345.24350187 157.4824206 345.24794865 163.82180738 C345.25088482 167.78862238 345.25499072 171.75543452 345.25945282 175.72224808 C345.27164139 186.72856938 345.28194028 197.73488876 345.28532791 208.74121666 C345.28554748 209.44463427 345.28576704 210.14805189 345.28599326 210.87278519 C345.28621154 211.57778964 345.28642982 212.28279409 345.28665471 213.00916231 C345.28709816 214.43752503 345.28754472 215.86588776 345.28799438 217.29425049 C345.28821581 218.00275243 345.28843724 218.71125438 345.28866538 219.44122608 C345.29260642 230.90020473 345.31004103 242.35911953 345.33335391 253.81807356 C345.35715529 265.61348569 345.3695338 277.40886592 345.37069583 289.20430243 C345.37160788 295.81450022 345.3775654 302.42462458 345.39551544 309.03480148 C345.41209508 315.26141658 345.41410391 321.48787483 345.40537643 327.71450424 C345.40461124 329.98711062 345.40887953 332.25972578 345.41883469 334.53231049 C345.48856603 351.45723869 344.51577611 367.7135722 338.86026001 383.82794189 C338.40743652 385.14290649 338.40743652 385.14290649 337.94546509 386.48443604 C326.48903311 418.6217688 301.54954446 444.3633445 271.04776001 459.14044189 C254.7122469 466.3200677 237.96773869 470.298124 220.09552002 470.28088379 C219.12133224 470.28385491 218.14714446 470.28682603 217.14343584 470.28988719 C213.89359887 470.29852768 210.64379894 470.30007851 207.39395142 470.30157471 C205.05747398 470.30620629 202.7209973 470.31123141 200.38452148 470.31661987 C194.04514611 470.32971589 187.70578131 470.33618375 181.36639452 470.34063053 C177.39957952 470.3435667 173.43276738 470.34767261 169.46595383 470.3521347 C158.45963253 470.36432327 147.45331314 470.37462217 136.44698524 470.3780098 C135.74356763 470.37822936 135.04015002 470.37844893 134.31541672 470.37867515 C133.61041227 470.37889343 132.90540782 470.3791117 132.1790396 470.3793366 C130.75067687 470.37978004 129.32231414 470.38022661 127.89395142 470.38067627 C126.8311985 470.38100841 126.8311985 470.38100841 125.74697582 470.38134727 C114.28799717 470.38528831 102.82908238 470.40272291 91.37012835 470.42603579 C79.57471621 470.44983718 67.77933599 470.46221569 55.98389947 470.46337771 C49.37370169 470.46428976 42.76357732 470.47024729 36.15340042 470.48819733 C29.92678533 470.50477696 23.70032708 470.5067858 17.47369766 470.49805832 C15.20109128 470.49729313 12.92847612 470.50156141 10.65589142 470.51151657 C-6.26903678 470.58124792 -22.5253703 469.60845799 -38.63973999 463.95294189 C-39.51638306 463.65105957 -40.39302612 463.34917725 -41.29623413 463.03814697 C-73.51638876 451.55219036 -99.03628701 426.63050337 -113.95223999 396.14044189 C-123.38237229 375.38962798 -125.55885391 354.3650741 -125.45394897 331.81134033 C-125.4577428 329.4516162 -125.46325152 327.09189432 -125.47032166 324.73217773 C-125.48415174 318.3894101 -125.47319613 312.0469175 -125.45661044 305.70416546 C-125.44406434 299.71002912 -125.44838531 293.7159101 -125.45174015 287.72176674 C-125.45759005 275.84663173 -125.44355841 263.97160346 -125.41879272 252.09649658 C-125.39485872 240.61859136 -125.38780063 229.14082854 -125.39828491 217.66290283 C-125.40973465 205.10586128 -125.41157601 192.54888523 -125.39718682 179.99184442 C-125.38965838 173.36568105 -125.38571125 166.73956312 -125.39169121 160.11339569 C-125.3964949 153.88494016 -125.38621988 147.65667936 -125.36473656 141.4282608 C-125.35921543 139.15523434 -125.35865984 136.88218898 -125.36368942 134.60916138 C-125.39587427 117.9658403 -124.26722413 102.35959862 -118.76473999 86.51544189 C-118.46285767 85.63428711 -118.16097534 84.75313232 -117.84994507 83.84527588 C-106.44204308 51.68031459 -81.45561799 25.91831132 -50.95223999 11.14044189 C-34.61672688 3.96081609 -17.87221867 -0.01724021 0 0 Z " fill="#FEFEFE" transform="translate(145.95223999023438,20.85955810546875)"/>
<path d="M0 0 C1.46128167 -0.00445668 1.46128167 -0.00445668 2.95208418 -0.0090034 C6.20192115 -0.01764389 9.45172108 -0.01919472 12.7015686 -0.02069092 C15.03804604 -0.02532251 17.37452272 -0.03034762 19.71099854 -0.03573608 C26.05037391 -0.0488321 32.38973871 -0.05529997 38.7291255 -0.05974674 C42.6959405 -0.06268292 46.66275264 -0.06678882 50.62956619 -0.07125092 C61.63588749 -0.08343948 72.64220688 -0.09373838 83.64853477 -0.09712601 C84.7036612 -0.09745536 84.7036612 -0.09745536 85.7801033 -0.09779136 C86.48510775 -0.09800964 87.1901122 -0.09822791 87.91648042 -0.09845281 C89.34484315 -0.09889626 90.77320588 -0.09934282 92.2015686 -0.09979248 C93.26432152 -0.10012463 93.26432152 -0.10012463 94.3485442 -0.10046348 C105.80752285 -0.10440452 117.26643764 -0.12183913 128.72539167 -0.145152 C140.52080381 -0.16895339 152.31618403 -0.1813319 164.11162055 -0.18249393 C170.72181833 -0.18340597 177.3319427 -0.1893635 183.9421196 -0.20731354 C190.16873469 -0.22389317 196.39519294 -0.22590201 202.62182236 -0.21717453 C204.89442874 -0.21640934 207.1670439 -0.22067762 209.4396286 -0.23063278 C226.3645568 -0.30036413 242.62089032 0.6724258 258.73526001 6.32794189 C260.05022461 6.78076538 260.05022461 6.78076538 261.39175415 7.24273682 C293.52908692 18.69916879 319.27066261 43.63865744 334.04776001 74.14044189 C341.22738582 90.47595501 345.20544211 107.22046321 345.1882019 125.09268188 C345.19265859 126.55396356 345.19265859 126.55396356 345.19720531 128.04476607 C345.20584579 131.29460304 345.20739662 134.54440296 345.20889282 137.79425049 C345.21352441 140.13072792 345.21854953 142.46720461 345.22393799 144.80368042 C345.237034 151.1430558 345.24350187 157.4824206 345.24794865 163.82180738 C345.25088482 167.78862238 345.25499072 171.75543452 345.25945282 175.72224808 C345.27164139 186.72856938 345.28194028 197.73488876 345.28532791 208.74121666 C345.28554748 209.44463427 345.28576704 210.14805189 345.28599326 210.87278519 C345.28621154 211.57778964 345.28642982 212.28279409 345.28665471 213.00916231 C345.28709816 214.43752503 345.28754472 215.86588776 345.28799438 217.29425049 C345.28821581 218.00275243 345.28843724 218.71125438 345.28866538 219.44122608 C345.29260642 230.90020473 345.31004103 242.35911953 345.33335391 253.81807356 C345.35715529 265.61348569 345.3695338 277.40886592 345.37069583 289.20430243 C345.37160788 295.81450022 345.3775654 302.42462458 345.39551544 309.03480148 C345.41209508 315.26141658 345.41410391 321.48787483 345.40537643 327.71450424 C345.40461124 329.98711062 345.40887953 332.25972578 345.41883469 334.53231049 C345.48856603 351.45723869 344.51577611 367.7135722 338.86026001 383.82794189 C338.40743652 385.14290649 338.40743652 385.14290649 337.94546509 386.48443604 C326.48903311 418.6217688 301.54954446 444.3633445 271.04776001 459.14044189 C254.7122469 466.3200677 237.96773869 470.298124 220.09552002 470.28088379 C219.12133224 470.28385491 218.14714446 470.28682603 217.14343584 470.28988719 C213.89359887 470.29852768 210.64379894 470.30007851 207.39395142 470.30157471 C205.05747398 470.30620629 202.7209973 470.31123141 200.38452148 470.31661987 C194.04514611 470.32971589 187.70578131 470.33618375 181.36639452 470.34063053 C177.39957952 470.3435667 173.43276738 470.34767261 169.46595383 470.3521347 C158.45963253 470.36432327 147.45331314 470.37462217 136.44698524 470.3780098 C135.74356763 470.37822936 135.04015002 470.37844893 134.31541672 470.37867515 C133.61041227 470.37889343 132.90540782 470.3791117 132.1790396 470.3793366 C130.75067687 470.37978004 129.32231414 470.38022661 127.89395142 470.38067627 C126.8311985 470.38100841 126.8311985 470.38100841 125.74697582 470.38134727 C114.28799717 470.38528831 102.82908238 470.40272291 91.37012835 470.42603579 C79.57471621 470.44983718 67.77933599 470.46221569 55.98389947 470.46337771 C49.37370169 470.46428976 42.76357732 470.47024729 36.15340042 470.48819733 C29.92678533 470.50477696 23.70032708 470.5067858 17.47369766 470.49805832 C15.20109128 470.49729313 12.92847612 470.50156141 10.65589142 470.51151657 C-6.26903678 470.58124792 -22.5253703 469.60845799 -38.63973999 463.95294189 C-39.51638306 463.65105957 -40.39302612 463.34917725 -41.29623413 463.03814697 C-73.51638876 451.55219036 -99.03628701 426.63050337 -113.95223999 396.14044189 C-123.38237229 375.38962798 -125.55885391 354.3650741 -125.45394897 331.81134033 C-125.4577428 329.4516162 -125.46325152 327.09189432 -125.47032166 324.73217773 C-125.48415174 318.3894101 -125.47319613 312.0469175 -125.45661044 305.70416546 C-125.44406434 299.71002912 -125.44838531 293.7159101 -125.45174015 287.72176674 C-125.45759005 275.84663173 -125.44355841 263.97160346 -125.41879272 252.09649658 C-125.39485872 240.61859136 -125.38780063 229.14082854 -125.39828491 217.66290283 C-125.40973465 205.10586128 -125.41157601 192.54888523 -125.39718682 179.99184442 C-125.38965838 173.36568105 -125.38571125 166.73956312 -125.39169121 160.11339569 C-125.3964949 153.88494016 -125.38621988 147.65667936 -125.36473656 141.4282608 C-125.35921543 139.15523434 -125.35865984 136.88218898 -125.36368942 134.60916138 C-125.39587427 117.9658403 -124.26722413 102.35959862 -118.76473999 86.51544189 C-118.46285767 85.63428711 -118.16097534 84.75313232 -117.84994507 83.84527588 C-106.44204308 51.68031459 -81.45561799 25.91831132 -50.95223999 11.14044189 C-34.61672688 3.96081609 -17.87221867 -0.01724021 0 0 Z M-33.63973999 50.70294189 C-34.33196655 51.03954834 -35.02419312 51.37615479 -35.73739624 51.72296143 C-56.85505887 62.4703433 -71.07608368 81.2364269 -79.08425999 103.25260544 C-82.65053035 115.00827699 -82.51037052 126.49804735 -82.45394897 138.70001221 C-82.45773857 141.04888227 -82.46324386 143.39775009 -82.47032166 145.74661255 C-82.48420673 152.08519998 -82.4731567 158.42351386 -82.45661044 164.76208591 C-82.44410859 170.73830159 -82.44837907 176.71449945 -82.45174015 182.69072208 C-82.45760026 194.52947576 -82.44351772 206.36812261 -82.41879272 218.20684814 C-82.39485562 229.66977944 -82.38779929 241.13256821 -82.39828491 252.59552002 C-82.40971473 265.11290691 -82.41160042 277.63022811 -82.39718682 290.14761424 C-82.38963704 296.7613796 -82.38573268 303.37509924 -82.39169121 309.98886871 C-82.39647597 316.20409424 -82.38629708 322.41912346 -82.36473656 328.63431168 C-82.35918993 330.90985324 -82.35868378 333.18541375 -82.36368942 335.46095657 C-82.36968187 338.5766032 -82.35706143 341.69165753 -82.33992004 344.80725098 C-82.34593009 345.69880552 -82.35194013 346.59036005 -82.3581323 347.5089314 C-82.29270656 354.08772198 -80.90303329 359.87694648 -78.95223999 366.14044189 C-78.59903687 367.34313721 -78.24583374 368.54583252 -77.88192749 369.78497314 C-70.67768467 391.42438399 -54.71745703 409.06187913 -34.53817749 419.53497314 C-23.54012027 424.45893994 -12.46466219 427.29007801 -0.42323303 427.28761292 C1.02406977 427.29312795 1.02406977 427.29312795 2.50061101 427.29875439 C5.73679172 427.30977541 8.9729403 427.31363247 12.20913696 427.31744385 C14.52871299 427.32370989 16.84828801 427.33035682 19.16786194 427.33735657 C26.79058128 427.35838967 34.4133008 427.36876103 42.03604126 427.37872314 C44.66351011 427.38277154 47.29097886 427.38688849 49.91844749 427.39107323 C60.85344938 427.40794347 71.7884492 427.42257595 82.7234621 427.42982197 C85.55918186 427.43173164 88.39490161 427.433652 91.23062134 427.43560791 C91.93536318 427.43609165 92.64010502 427.43657539 93.36620267 427.43707379 C104.7620789 427.44535982 116.15784966 427.47067247 127.55367992 427.50318859 C139.27440618 427.53635673 150.99507904 427.55427967 162.71585244 427.55746621 C169.28806396 427.55981087 175.86010889 427.56869492 182.43227577 427.59392738 C188.62358474 427.61731279 194.81461868 427.62139925 201.00596046 427.611166 C203.26812152 427.61067301 205.5302966 427.61692293 207.79241562 427.63072205 C231.28640467 427.76592033 252.48049275 423.45029384 271.04776001 408.14044189 C271.8250647 407.52555908 272.60236938 406.91067627 273.40322876 406.27716064 C289.15401797 393.18313106 298.90453025 373.17455459 302.04776001 353.14044189 C302.30222858 349.80787899 302.32295196 346.4964621 302.30845642 343.1552887 C302.31228197 342.20177668 302.31610752 341.24826467 302.32004899 340.26585835 C302.33029699 337.0981002 302.32640247 333.9305261 302.32241821 330.76275635 C302.3267693 328.480228 302.33195378 326.19770112 302.33790588 323.91517639 C302.3512664 317.73312384 302.35187767 311.55113255 302.34934258 305.36906838 C302.34827057 300.19800744 302.35316229 295.02695877 302.35794801 289.85590047 C302.3696668 276.95154718 302.36882402 264.04723284 302.3623912 251.1428779 C302.35722727 239.9665215 302.36846657 228.79025241 302.38748942 217.61391328 C302.40691993 206.10885669 302.41482391 194.60385162 302.41136616 183.09877747 C302.40955847 176.65134933 302.41213788 170.20400109 302.4260807 163.75658607 C302.4387129 157.68835233 302.43666406 151.62029235 302.42366982 145.55206108 C302.42131596 143.33463607 302.42399561 141.11719863 302.43229294 138.8997879 C302.53010344 110.71065898 296.1370508 86.91976852 276.04776001 66.14044189 C260.12085838 51.00478057 238.77199051 42.79528123 216.91784668 42.87301636 C215.96080782 42.86848524 215.00376896 42.86395413 214.01772892 42.85928571 C210.84393223 42.84673027 207.67030909 42.84825633 204.49649048 42.84991455 C202.20720705 42.84392371 199.91792564 42.83711689 197.62864685 42.82955933 C191.43206254 42.81194735 185.23553353 42.80720593 179.0389266 42.80592775 C175.16037648 42.80450272 171.28184026 42.8002264 167.40329361 42.79493332 C154.55006895 42.77740039 141.69688868 42.7680911 128.84365378 42.76959427 C127.80676644 42.76971414 127.80676644 42.76971414 126.74893188 42.76983643 C125.71075987 42.76995907 125.71075987 42.76995907 124.65161468 42.77008419 C113.4475506 42.77089623 102.24362122 42.75177387 91.03959607 42.72355969 C79.50059434 42.69473423 67.96167552 42.6813898 56.4226352 42.68274724 C49.95836034 42.68325522 43.49423802 42.67766318 37.02999496 42.65639114 C30.94446901 42.63691091 24.85923954 42.63695099 18.77370262 42.65142441 C16.55227534 42.65350159 14.33082902 42.64887747 12.10943413 42.63670349 C-3.75746295 42.5554457 -19.16477426 43.49206742 -33.63973999 50.70294189 Z " fill="#C38289" transform="translate(145.95223999023438,20.85955810546875)"/>
<path d="M0 0 C1.16789063 0.56847656 2.33578125 1.13695312 3.5390625 1.72265625 C14.98162659 7.60472374 24.68301551 15.18504003 34 24 C34.82371094 24.75925781 35.64742187 25.51851562 36.49609375 26.30078125 C58.31275951 47.09638621 71.85062011 77.57068737 73.10986328 107.62182617 C73.87990406 142.60691396 64.54627239 176.0042194 40.02929688 201.86010742 C38.69101304 203.2447418 37.3456385 204.62251207 36 206 C35.27296875 206.78890625 34.5459375 207.5778125 33.796875 208.390625 C23.13488258 219.6844392 9.87681157 227.32758672 -4 234 C-5.52947266 234.74056641 -5.52947266 234.74056641 -7.08984375 235.49609375 C-33.18096591 246.73804035 -64.07221195 247.07010162 -91 239 C-91.76054687 238.80921875 -92.52109375 238.6184375 -93.3046875 238.421875 C-113.27921232 233.1760402 -130.41609213 221.22511419 -145 207 C-146.16595703 205.94425781 -146.16595703 205.94425781 -147.35546875 204.8671875 C-158.91431305 194.10621033 -166.42977542 180.16801984 -173 166 C-173.42023438 165.13632812 -173.84046875 164.27265625 -174.2734375 163.3828125 C-184.43461016 141.91447025 -185.827002 113.96636741 -181 91 C-180.8546582 90.29875 -180.70931641 89.5975 -180.55957031 88.875 C-175.31755458 64.43318611 -163.36171703 43.77264524 -146 26 C-145.27296875 25.21109375 -144.5459375 24.4221875 -143.796875 23.609375 C-107.98517847 -14.32449613 -45.97947507 -22.64678993 0 0 Z " fill="#E77B7B" transform="translate(311,140)"/>
<path d="M0 0 C14.89698672 12.73412894 26.08899018 32.40153267 28 52 C29.99292526 80.074467 23.39501765 101.82033241 4.953125 123.39453125 C-5.21166766 134.30448728 -18.01064418 141.29547745 -32 146 C-32.92425781 146.33902344 -33.84851563 146.67804688 -34.80078125 147.02734375 C-53.36810838 152.85818309 -77.54239585 149.93243055 -94.7265625 141.171875 C-116.78591861 129.26857382 -132.48565713 110.80227611 -139.9375 86.8125 C-146.00382334 65.15727504 -142.73433487 42.33595751 -132.203125 22.796875 C-120.55030004 2.17075168 -101.3019768 -12.99506927 -78.50390625 -19.52734375 C-49.45141507 -25.01151135 -22.76793272 -19.09778094 0 0 Z " fill="#FEFEFE" transform="translate(313,192)"/>
<path d="M0 0 C5.13323344 4.54991146 8.60013454 8.40923689 9.203125 15.33203125 C9.33573189 22.34914574 8.35575598 27.27228256 3.625 32.75 C-2.17571291 37.72203963 -6.90428081 39.31348104 -14.43359375 39.21484375 C-20.81971053 38.68023732 -24.92890247 35.74961379 -29 31 C-32.97649359 25.03525962 -33.58892688 20.03499931 -33 13 C-30.90121358 6.26179097 -26.89186669 1.80120432 -21 -2 C-13.82638947 -4.21673802 -6.52961605 -3.71291893 0 0 Z " fill="#9571A1" transform="translate(396,110)"/>
</svg>
